<?xml version="1.0" encoding="utf-8"?>
<!-- Generator: Adobe Illustrator 24.0.0, SVG Export Plug-In . SVG Version: 6.00 Build 0)  -->
<svg version="1.1" id="Layer_1" xmlns="http://www.w3.org/2000/svg" xmlns:xlink="http://www.w3.org/1999/xlink" x="0px" y="0px"
	 viewBox="152 163 720 248" style="enable-background:new 0 0 1024 576;" xml:space="preserve">
<style type="text/css">
	.st0{fill:url(#SVGID_1_);}
	.st1{fill:#4DB749;}
	.st2{fill:url(#SVGID_2_);}
</style>
<g>
	<g>
		<linearGradient id="SVGID_1_" gradientUnits="userSpaceOnUse" x1="588.0209" y1="274.444" x2="588.0209" y2="400.8444">
			<stop  offset="0" style="stop-color:#4A4A4A"/>
			<stop  offset="1" style="stop-color:#363636"/>
		</linearGradient>
		<path class="st0" d="M577.61,406.26c0.66-8.5,3.03-16.05,6.6-23.14c12.22-24.27,31.91-38.57,58.66-43.09
			c4.1-0.69,8.33-0.88,12.5-0.9c24.39-0.08,48.78-0.07,73.17,0c3.4,0.01,6.17-0.79,8.06-3.78c3.35-5.29,0.83-11.99-5.24-13.55
			c-1.7-0.44-3.55-0.44-5.33-0.44c-29.18-0.02-58.35-0.07-87.53,0c-60.74,0.15-121.49,0.36-182.23,0.56c-1.47,0-2.93,0.12-4.72,0.2
			c-1.07,5.16-2.09,10.1-3.13,15.04c-6.95,33.23-26.56,55.26-58.94,65.35c-8.47,2.64-17.54,3.38-26.35,4.92
			c-1.27,0.22-2.61,0.03-4.44,0.03c9.16-51.71,18.24-102.95,27.38-154.52c1.89-0.08,3.49-0.22,5.09-0.22
			c122.99-0.01,245.99-0.02,368.98,0c26.53,0.01,49.86,19.15,55.43,45.06c2.34,10.86,2.38,21.69,0.34,32.51
			c-1.58,8.34-2.71,16.93-5.62,24.83c-11.32,30.69-40.58,51.12-73.24,51.26c-51.92,0.21-103.84,0.07-155.76,0.06
			C580.25,406.44,579.22,406.34,577.61,406.26z"/>
		<path class="st1" d="M846.65,168.74c-0.29,6.4-2.27,11.74-4.53,16.86c-10.64,24.14-28.98,39.48-54.39,46.17
			c-5.71,1.5-11.81,2.04-17.74,2.06c-50.55,0.16-101.11,0.09-151.66,0.09c-1.62,0-3.23,0-5.39,0c0.12-1.9,0.01-3.36,0.33-4.72
			c7.12-30.43,25.89-49.85,55.86-58.22c5.96-1.66,12.37-2.38,18.57-2.39c51.3-0.1,102.6,0.07,153.9,0.16
			C843.21,168.74,844.8,168.74,846.65,168.74z"/>
		<path class="st1" d="M389.55,233.5c3.9-21.86,7.71-43.21,11.55-64.75c66.68,0,132.84,0,199.81,0c-0.99,4.39-1.53,8.51-2.86,12.36
			c-9.17,26.67-27.78,43.38-54.79,50.67c-5.69,1.53-11.81,2.02-17.73,2.04c-43.51,0.13-87.02,0.01-130.53-0.04
			C393.4,233.78,391.8,233.62,389.55,233.5z"/>
		<path class="st1" d="M177.35,233.62c1.69-12.59,5.96-23.49,13.08-33.13c15.18-20.54,35.63-31.72,61.21-31.92
			c42.01-0.32,84.03,0.07,126.05,0.17c1.46,0,2.93,0.13,5.04,0.22c-3.95,21.74-7.82,43.09-11.73,64.65
			C306.34,233.62,242.12,233.62,177.35,233.62z"/>
		<linearGradient id="SVGID_2_" gradientUnits="userSpaceOnUse" x1="322.2313" y1="274.444" x2="322.2313" y2="400.8444">
			<stop  offset="0" style="stop-color:#4A4A4A"/>
			<stop  offset="1" style="stop-color:#363636"/>
		</linearGradient>
		<path class="st2" d="M367.88,252c-9.33,51.53-18.56,102.48-27.9,154.09c-4.77-0.54-9.17-0.9-13.54-1.55
			c-9.4-1.42-18.36-4.23-26.44-9.34c-14.48-9.15-21.53-22.72-23.13-39.47c-1-10.42,0.73-20.53,3.04-30.63
			c5.06-22.13,9.95-44.29,14.93-66.44c0.49-2.17,1.08-4.31,1.68-6.66C320.18,252,343.59,252,367.88,252z"/>
	</g>
</g>
</svg>
